<svg width="120" height="107" viewBox="0 0 120 107" fill="none" xmlns="http://www.w3.org/2000/svg">
<path d="M104.133 53.5C104.133 81.6746 81.3739 104.5 53.3167 104.5C25.2595 104.5 2.5 81.6746 2.5 53.5C2.5 25.3254 25.2595 2.5 53.3167 2.5C81.3739 2.5 104.133 25.3254 104.133 53.5Z" stroke="#FF0202" stroke-width="5"/>
<path d="M104.133 53.5C104.133 81.6746 81.3739 104.5 53.3167 104.5C25.2595 104.5 2.5 81.6746 2.5 53.5C2.5 25.3254 25.2595 2.5 53.3167 2.5C81.3739 2.5 104.133 25.3254 104.133 53.5Z" stroke="url(#paint0_linear_784_3966)" stroke-opacity="0.2" stroke-width="5"/>
<path d="M81.214 21.8951C79.4317 20.3357 76.6765 20.4656 75.0613 22.1859L34.9664 64.872L16.0548 49.9033C14.5697 48.7293 12.3995 48.5954 10.7527 49.7128C8.76982 51.0569 8.29076 53.6972 9.68357 55.6112L29.3386 82.6268C29.8763 83.3588 30.5706 84.039 31.3817 84.5776C35.0682 87.0211 40.1089 86.1166 42.6402 82.5578L42.9615 82.1057L81.8788 27.3901C83.0962 25.683 82.8494 23.3266 81.214 21.8951V21.8951Z" fill="#FF0202"/>
<path d="M81.214 21.8951C79.4317 20.3357 76.6765 20.4656 75.0613 22.1859L34.9664 64.872L16.0548 49.9033C14.5697 48.7293 12.3995 48.5954 10.7527 49.7128C8.76982 51.0569 8.29076 53.6972 9.68357 55.6112L29.3386 82.6268C29.8763 83.3588 30.5706 84.039 31.3817 84.5776C35.0682 87.0211 40.1089 86.1166 42.6402 82.5578L42.9615 82.1057L81.8788 27.3901C83.0962 25.683 82.8494 23.3266 81.214 21.8951V21.8951Z" fill="url(#paint1_linear_784_3966)" fill-opacity="0.2"/>
<path d="M118.571 21.8951C116.788 20.3357 114.033 20.4656 112.418 22.1859L72.3231 64.872L65.7216 59.6474L57.9531 70.6105L66.6952 82.6268C67.2321 83.3588 67.9261 84.039 68.738 84.5776C72.4249 87.0211 77.4655 86.1166 79.9969 82.5578L80.3181 82.1057L119.235 27.3901C120.453 25.683 120.206 23.3266 118.571 21.8951V21.8951Z" fill="#FF0202"/>
<path d="M118.571 21.8951C116.788 20.3357 114.033 20.4656 112.418 22.1859L72.3231 64.872L65.7216 59.6474L57.9531 70.6105L66.6952 82.6268C67.2321 83.3588 67.9261 84.039 68.738 84.5776C72.4249 87.0211 77.4655 86.1166 79.9969 82.5578L80.3181 82.1057L119.235 27.3901C120.453 25.683 120.206 23.3266 118.571 21.8951V21.8951Z" fill="url(#paint2_linear_784_3966)" fill-opacity="0.2"/>
<defs>
<linearGradient id="paint0_linear_784_3966" x1="53.3167" y1="0" x2="53.3167" y2="107" gradientUnits="userSpaceOnUse">
<stop stop-color="white"/>
<stop offset="1" stop-color="white" stop-opacity="0"/>
</linearGradient>
<linearGradient id="paint1_linear_784_3966" x1="45.7649" y1="20.8055" x2="45.7649" y2="85.9509" gradientUnits="userSpaceOnUse">
<stop stop-color="white"/>
<stop offset="1" stop-color="white" stop-opacity="0"/>
</linearGradient>
<linearGradient id="paint2_linear_784_3966" x1="88.9766" y1="20.8055" x2="88.9766" y2="85.9509" gradientUnits="userSpaceOnUse">
<stop stop-color="white"/>
<stop offset="1" stop-color="white" stop-opacity="0"/>
</linearGradient>
</defs>
</svg>
